<svg width="1200" height="382" viewBox="0 0 1200 382" fill="none" xmlns="http://www.w3.org/2000/svg">
<path d="M48.2744 275.925L87.9415 210.132L124.557 275.925L87.9415 341.717L48.2744 275.925Z" fill="#35544A"/>
<path d="M87.9415 341.717L48.2744 275.925H124.557L87.9415 341.717Z" fill="#09271D"/>
<path d="M235.454 275.929L142.073 119.343L110.508 171.977L168.378 275.929L131.551 341.722H195.997L235.454 275.929Z" fill="#35544A"/>
<path d="M235.451 275.927H168.375L131.548 341.72H195.994L235.451 275.927Z" fill="#09271D"/>
<path d="M345.842 275.929L252.461 119.343L220.896 171.977L278.765 275.929L241.939 341.722H306.385L345.842 275.929Z" fill="#35544A"/>
<path d="M345.842 275.929H278.765L241.939 341.722H306.385L345.842 275.929Z" fill="#09271D"/>
<path d="M395.944 231.215V122.006H426.522V138.133H426.759C430.631 132.283 435.53 127.698 441.456 124.378C447.382 120.979 454.295 119.279 462.197 119.279C470.098 119.279 476.814 120.939 482.345 124.259C487.955 127.58 491.826 132.481 493.96 138.963H494.078C498.108 132.718 503.481 127.896 510.197 124.497C516.913 121.018 524.459 119.279 532.834 119.279C543.422 119.279 551.916 122.323 558.316 128.41C564.716 134.496 567.916 144.654 567.916 158.884V231.215H536.39V163.271C536.39 155.761 534.888 150.544 531.886 147.619C528.883 144.694 524.617 143.232 519.086 143.232C514.187 143.232 509.92 144.733 506.286 147.737C502.73 150.741 499.846 154.575 497.634 159.239V231.215H466.108V163.271C466.108 155.761 464.567 150.544 461.485 147.619C458.483 144.694 454.177 143.232 448.567 143.232C443.747 143.232 439.559 144.773 436.004 147.856C432.448 150.86 429.525 154.694 427.233 159.358V231.215H395.944Z" fill="#09271D"/>
<path d="M583.679 178.33V174.417C583.679 157.816 588.933 144.417 599.442 134.22C609.95 124.022 623.936 118.924 641.398 118.924C658.938 118.924 672.963 124.022 683.472 134.22C693.981 144.417 699.235 157.816 699.235 174.417V178.33C699.235 195.01 693.981 208.448 683.472 218.646C672.963 228.843 658.938 233.942 641.398 233.942C623.857 233.942 609.832 228.843 599.323 218.646C588.894 208.448 583.679 195.01 583.679 178.33ZM615.323 173.587V179.041C615.323 188.527 617.536 196.274 621.96 202.282C626.385 208.211 632.864 211.175 641.398 211.175C649.931 211.175 656.41 208.211 660.835 202.282C665.259 196.274 667.472 188.527 667.472 179.041V173.587C667.472 164.18 665.259 156.552 660.835 150.702C656.41 144.852 649.931 141.927 641.398 141.927C632.864 141.927 626.385 144.852 621.96 150.702C617.536 156.552 615.323 164.18 615.323 173.587Z" fill="#09271D"/>
<path d="M710.257 178.448V174.654C710.257 158.686 714.405 145.524 722.702 135.168C731.077 124.813 742.139 119.635 755.887 119.635C764.262 119.635 771.334 120.979 777.102 123.667C782.87 126.354 787.374 129.951 790.613 134.457V58.0942H821.31V231.215H791.324L791.206 215.444H790.969C787.808 220.424 783.226 224.693 777.221 228.25C771.295 231.808 764.183 233.586 755.887 233.586C741.744 233.586 730.603 228.369 722.465 217.934C714.326 207.5 710.257 194.338 710.257 178.448ZM741.902 178.093C741.902 187.816 743.917 195.8 747.946 202.045C751.976 208.29 758.257 211.413 766.791 211.413C772.48 211.413 777.339 209.792 781.369 206.551C785.398 203.231 788.322 199.476 790.139 195.286V156.868C788.401 152.757 785.517 149.239 781.487 146.314C777.458 143.39 772.559 141.927 766.791 141.927C758.257 141.927 751.976 145.05 747.946 151.295C743.917 157.461 741.902 165.366 741.902 175.01V178.093Z" fill="#09271D"/>
<path d="M838.258 178.211V174.417C838.258 157.579 843.315 144.141 853.428 134.101C863.621 123.983 877.211 118.924 894.199 118.924C910.95 118.924 923.829 123.706 932.836 133.271C941.844 142.836 946.347 156.077 946.347 172.994V182.006H854.851V164.931H916.006V164.101C916.006 157.935 914.268 152.599 910.792 148.093C907.315 143.587 901.705 141.334 893.962 141.334C885.903 141.334 879.779 144.22 875.591 149.99C871.483 155.761 869.428 162.955 869.428 171.571V178.448C869.428 188.725 871.641 196.788 876.066 202.638C880.569 208.488 887.009 211.413 895.384 211.413C901.389 211.413 906.406 210.227 910.436 207.855C914.545 205.405 917.705 202.164 919.918 198.132L945.518 206.788C942.12 214.93 936.392 221.491 928.332 226.472C920.352 231.452 909.488 233.942 895.74 233.942C877.409 233.942 863.226 228.962 853.191 219.001C843.236 208.962 838.258 195.365 838.258 178.211Z" fill="#09271D"/>
<path d="M962.703 231.215V122.006H994.111V137.184H994.229C997.39 132.125 1001.46 127.975 1006.44 124.734C1011.41 121.493 1017.22 119.872 1023.86 119.872C1025.91 119.872 1027.97 120.03 1030.02 120.346C1032.08 120.584 1033.46 120.86 1034.17 121.176V145.01C1032.75 144.536 1031.01 144.18 1028.96 143.943C1026.98 143.627 1024.81 143.469 1022.44 143.469C1017.06 143.469 1011.85 145.208 1006.79 148.686C1001.74 152.085 997.706 156.631 994.703 162.322V231.215H962.703Z" fill="#09271D"/>
<path d="M1045.67 231.215V122.006H1076.48V137.303H1076.72C1079.8 131.69 1084.38 127.303 1090.47 124.141C1096.55 120.9 1103.86 119.279 1112.39 119.279C1123.38 119.279 1132.19 122.362 1138.82 128.528C1145.54 134.694 1148.9 144.852 1148.9 159.002V231.215H1117.61V164.219C1117.61 156.631 1115.99 151.255 1112.75 148.093C1109.51 144.852 1105.01 143.232 1099.24 143.232C1094.26 143.232 1089.83 144.694 1085.96 147.619C1082.09 150.544 1079.09 154.378 1076.96 159.121V231.215H1045.67Z" fill="#09271D"/>
<path d="M395.934 341.157V269.383H423.624C431.212 269.383 437.174 271.42 441.51 275.495C445.846 279.538 448.014 285.042 448.014 292.009C448.014 299.075 445.78 304.728 441.313 308.967C436.846 313.206 430.9 315.326 423.477 315.326H412.243V341.157H395.934ZM412.243 304.087H421.259C425.07 304.087 427.747 303.035 429.291 300.932C430.867 298.829 431.656 296.052 431.656 292.601C431.656 289.15 430.867 286.39 429.291 284.319C427.747 282.249 425.07 281.214 421.259 281.214H412.243V304.087ZM433.233 341.157L418.303 309.016L433.922 306.354L451.217 341.157H433.233Z" fill="#35544A"/>
<path d="M457.129 341.157V269.383H504.332V282.101H472.995V298.615H499.947V310.397H472.995V328.735H504.973V341.157H457.129Z" fill="#35544A"/>
<path d="M510.639 321.439V318.728H526.258V320.552C526.258 324.035 527.26 326.631 529.264 328.34C531.3 330.049 534.125 330.904 537.738 330.904C541.253 330.904 543.963 330.115 545.868 328.537C547.774 326.96 548.726 324.857 548.726 322.228C548.726 319.73 547.741 317.742 545.77 316.263C543.799 314.751 539.791 313.124 533.747 311.383C526.291 309.181 520.74 306.322 517.093 302.805C513.48 299.289 511.657 294.655 511.624 288.904C511.624 282.561 513.94 277.533 518.572 273.819C523.236 270.073 529.461 268.2 537.246 268.2C544.998 268.2 551.239 270.007 555.969 273.622C560.699 277.237 563.064 282.216 563.064 288.559V290.826H547.691V289.347C547.691 286.423 546.821 284.122 545.08 282.446C543.339 280.737 540.793 279.883 537.443 279.883C533.994 279.883 531.464 280.589 529.855 282.002C528.278 283.416 527.49 285.289 527.49 287.622C527.49 289.857 528.492 291.631 530.495 292.946C532.499 294.261 536.589 295.805 542.764 297.58C550.024 299.683 555.46 302.526 559.073 306.108C562.719 309.657 564.542 314.554 564.542 320.798C564.542 327.568 562.095 332.859 557.201 336.671C552.307 340.483 545.868 342.389 537.886 342.389C529.904 342.389 523.367 340.615 518.276 337.065C513.185 333.483 510.639 328.274 510.639 321.439Z" fill="#35544A"/>
<path d="M567.942 282.101V269.383H624.457V282.101H604.453V341.157H587.996V282.101H567.942Z" fill="#35544A"/>
<path d="M396 63.386C396 58.8814 397.698 55.4692 401.095 53.1495C404.519 50.8027 408.877 49.6159 414.17 49.5889H422.544V47.2017C422.544 45.3675 422.083 43.8974 421.161 42.7915C420.24 41.6586 418.646 41.0921 416.382 41.0921C414.117 41.0921 412.484 41.5642 411.484 42.5083C410.509 43.4254 410.022 44.5853 410.022 45.9879V46.6757H398.251V45.9474C398.251 42.1711 399.976 39.0826 403.426 36.6819C406.876 34.2543 411.392 33.0405 416.974 33.0405C422.636 33.0405 427.007 34.2003 430.088 36.5201C433.169 38.8398 434.709 42.4678 434.709 47.404V66.1778C434.709 67.8502 434.854 69.4551 435.144 70.9926C435.46 72.5032 435.881 73.7844 436.408 74.8364V75.4838H424.4C424.058 74.8634 423.768 74.0677 423.531 73.0966C423.294 72.0986 423.123 71.114 423.018 70.143C422.201 71.7074 420.661 73.1101 418.396 74.3509C416.132 75.5917 413.314 76.2121 409.943 76.2121C405.914 76.2121 402.583 75.1466 399.95 73.0157C397.317 70.8578 396 67.6479 396 63.386ZM408.166 62.334C408.166 64.1413 408.666 65.5709 409.667 66.6229C410.667 67.6749 412.234 68.2008 414.367 68.2008C416.658 68.2008 418.594 67.4456 420.174 65.935C421.754 64.3975 422.544 62.5903 422.544 60.5133V56.7505H416.5C413.656 56.7505 411.55 57.2225 410.18 58.1666C408.837 59.1107 408.166 60.4998 408.166 62.334Z" fill="#35544A"/>
<path d="M439.963 34.2138H452.01L457.896 56.8314C458.159 57.8834 458.37 58.8274 458.528 59.6636C458.712 60.4998 458.883 61.39 459.041 62.334H459.278C459.436 61.39 459.581 60.4998 459.713 59.6636C459.871 58.8274 460.094 57.8834 460.384 56.8314L466.902 34.2138H478.435L485.19 56.9123C485.506 57.9373 485.743 58.8679 485.901 59.7041C486.085 60.5403 486.269 61.4304 486.454 62.3745H486.651C486.809 61.4304 486.967 60.5403 487.125 59.7041C487.283 58.8409 487.481 57.9103 487.718 56.9123L493.603 34.2138H504.229L492.181 75.4838H480.41L473.34 52.6639C473.077 51.7468 472.84 50.8162 472.629 49.8721C472.418 48.928 472.221 47.9974 472.036 47.0803H471.878C471.72 47.9974 471.523 48.928 471.286 49.8721C471.075 50.8162 470.838 51.7468 470.575 52.6639L463.9 75.4838H452.05L439.963 34.2138Z" fill="#35544A"/>
<path d="M507.073 55.4557V54.161C507.073 47.7682 508.982 42.6431 512.8 38.7859C516.645 34.9286 521.595 33 527.652 33C533.735 33 538.475 34.8207 541.872 38.4622C545.295 42.1037 547.006 47.1208 547.006 53.5136V57.6406H514.854V50.3577H535.038V49.5889C535.038 47.404 534.393 45.5698 533.103 44.0862C531.839 42.6027 530.009 41.8609 527.612 41.8609C524.874 41.8609 522.78 42.8994 521.332 44.9764C519.91 47.0534 519.199 49.8182 519.199 53.2708V55.9412C519.199 59.5288 519.963 62.3745 521.49 64.4785C523.043 66.5554 525.321 67.5939 528.323 67.5939C530.404 67.5939 532.194 67.0814 533.695 66.0564C535.222 65.0314 536.434 63.8176 537.329 62.415L546.374 67.3107C545.084 70.062 542.899 72.3144 539.818 74.0677C536.737 75.794 532.958 76.6571 528.481 76.6571C521.793 76.6571 516.552 74.7285 512.76 70.8713C508.968 67.014 507.073 61.8755 507.073 55.4557Z" fill="#35544A"/>
<path d="M551.549 62.3745L563.162 62.4554V63.1433C563.162 65.0584 563.794 66.4475 565.058 67.3107C566.322 68.1739 568.033 68.6055 570.193 68.6055C572.326 68.6055 573.932 68.2143 575.012 67.4321C576.118 66.6229 576.671 65.5304 576.671 64.1548C576.671 62.7791 576.065 61.7541 574.854 61.0798C573.642 60.3784 570.93 59.5962 566.717 58.733C561.819 57.735 558.251 56.184 556.012 54.08C553.8 51.9761 552.694 49.2248 552.694 45.8261C552.694 41.807 554.274 38.6645 557.434 36.3987C560.594 34.1329 564.887 33 570.311 33C575.709 33 580.002 34.1868 583.188 36.5605C586.374 38.9073 587.967 42.1441 587.967 46.2711V46.8376H576.394V46.1497C576.394 44.5313 575.881 43.304 574.854 42.4678C573.827 41.6047 572.273 41.1731 570.193 41.1731C568.191 41.1731 566.73 41.5102 565.808 42.1846C564.913 42.8589 564.465 43.7895 564.465 44.9764C564.465 46.1632 565.071 47.1073 566.282 47.8086C567.494 48.483 570.245 49.2517 574.538 50.1149C579.462 51.1129 583.056 52.6235 585.321 54.6465C587.612 56.6426 588.757 59.4209 588.757 62.9814C588.757 67.3242 587.177 70.6824 584.017 73.0561C580.884 75.4298 576.315 76.6167 570.311 76.6167C564.334 76.6167 559.712 75.4298 556.447 73.0561C553.208 70.6824 551.575 67.2972 551.549 62.9005V62.3745Z" fill="#35544A"/>
<path d="M593.971 55.4557V54.161C593.971 47.7142 595.933 42.5757 599.857 38.7454C603.78 34.9151 608.915 33 615.262 33C621.608 33 626.73 34.9151 630.627 38.7454C634.55 42.5757 636.512 47.7142 636.512 54.161V55.4557C636.512 61.9025 634.55 67.041 630.627 70.8713C626.73 74.7015 621.608 76.6167 615.262 76.6167C608.915 76.6167 603.78 74.7015 599.857 70.8713C595.933 67.041 593.971 61.9025 593.971 55.4557ZM606.414 53.5541V56.0626C606.414 59.7041 607.177 62.5094 608.705 64.4785C610.232 66.4206 612.418 67.3916 615.262 67.3916C618.106 67.3916 620.278 66.4206 621.779 64.4785C623.306 62.5094 624.07 59.7041 624.07 56.0626V53.5541C624.07 49.9126 623.293 47.1208 621.739 45.1787C620.212 43.2366 618.053 42.2655 615.262 42.2655C612.444 42.2655 610.258 43.2366 608.705 45.1787C607.177 47.1208 606.414 49.9126 606.414 53.5541Z" fill="#35544A"/>
<path d="M643.741 75.4838V34.2138H655.393L655.591 39.231H655.788C657.026 37.3428 658.672 35.8862 660.725 34.8612C662.806 33.8362 665.07 33.3237 667.519 33.3237C670.337 33.3237 672.786 33.9441 674.866 35.1849C676.973 36.3987 678.487 38.179 679.409 40.5257H679.527C680.949 38.179 682.858 36.3987 685.255 35.1849C687.677 33.9441 690.258 33.3237 692.997 33.3237C697.025 33.3237 700.278 34.5915 702.753 37.127C705.228 39.6625 706.466 43.8839 706.466 49.7912V75.4838H694.261V49.8317C694.261 47.404 693.773 45.6372 692.799 44.5313C691.825 43.3984 690.39 42.8185 688.494 42.7915C686.808 42.7915 685.347 43.277 684.109 44.2481C682.898 45.2191 681.924 46.5409 681.186 48.2132V75.4838H668.981V49.9531C668.981 47.4715 668.481 45.6642 667.48 44.5313C666.506 43.3714 665.044 42.7915 663.095 42.7915C661.463 42.7915 660.041 43.277 658.83 44.2481C657.618 45.1922 656.657 46.5139 655.946 48.2132V75.4838H643.741Z" fill="#35544A"/>
<path d="M713.339 55.4557V54.161C713.339 47.7682 715.248 42.6431 719.066 38.7859C722.911 34.9286 727.861 33 733.918 33C740.001 33 744.741 34.8207 748.138 38.4622C751.561 42.1037 753.273 47.1208 753.273 53.5136V57.6406H721.12V50.3577H741.304V49.5889C741.304 47.404 740.659 45.5698 739.369 44.0862C738.105 42.6027 736.275 41.8609 733.879 41.8609C731.14 41.8609 729.046 42.8994 727.598 44.9764C726.176 47.0534 725.465 49.8182 725.465 53.2708V55.9412C725.465 59.5288 726.229 62.3745 727.756 64.4785C729.31 66.5554 731.588 67.5939 734.589 67.5939C736.67 67.5939 738.46 67.0814 739.961 66.0564C741.489 65.0314 742.7 63.8176 743.595 62.415L752.641 67.3107C751.35 70.062 749.165 72.3144 746.084 74.0677C743.003 75.794 739.224 76.6571 734.747 76.6571C728.059 76.6571 722.819 74.7285 719.027 70.8713C715.235 67.014 713.339 61.8755 713.339 55.4557Z" fill="#35544A"/>
</svg>
