<svg width="440" height="140" viewBox="0 0 440 140" fill="none" xmlns="http://www.w3.org/2000/svg">
<path d="M17.7012 99.8312L32.2458 75.7188L45.6716 99.8312L32.2458 123.944L17.7012 99.8312Z" fill="#BAC5C4"/>
<path d="M32.2458 123.944L17.7012 99.8312H45.6716L32.2458 123.944Z" fill="white"/>
<path d="M86.3331 99.8329L52.0935 42.4453L40.5195 61.7353L61.7385 99.8329L48.2355 123.945H71.8657L86.3331 99.8329Z" fill="#BAC5C4"/>
<path d="M86.332 99.832H61.7373L48.2344 123.944H71.8646L86.332 99.832Z" fill="white"/>
<path d="M126.808 99.8329L92.5681 42.4453L80.9941 61.7353L102.213 99.8329L88.7101 123.945H112.34L126.808 99.8329Z" fill="#BAC5C4"/>
<path d="M126.808 99.8329H102.213L88.7101 123.945H112.34L126.808 99.8329Z" fill="white"/>
<path d="M145.18 83.4453V43.4214H156.392V49.3315H156.479C157.898 47.1877 159.694 45.5073 161.867 44.2905C164.04 43.0448 166.575 42.4219 169.472 42.4219C172.369 42.4219 174.832 43.0303 176.86 44.2471C178.917 45.4639 180.336 47.2601 181.119 49.6357H181.162C182.64 47.347 184.61 45.5798 187.072 44.334C189.535 43.0592 192.302 42.4219 195.373 42.4219C199.255 42.4219 202.369 43.5373 204.716 45.7681C207.062 47.9989 208.236 51.7217 208.236 56.9365V83.4453H196.676V58.5444C196.676 55.7922 196.126 53.88 195.025 52.8081C193.924 51.7362 192.36 51.2002 190.332 51.2002C188.535 51.2002 186.971 51.7507 185.638 52.8516C184.334 53.9525 183.277 55.3576 182.466 57.0669V83.4453H170.906V58.5444C170.906 55.7922 170.341 53.88 169.211 52.8081C168.111 51.7362 166.532 51.2002 164.475 51.2002C162.707 51.2002 161.172 51.7651 159.868 52.895C158.564 53.9959 157.493 55.401 156.652 57.1104V83.4453H145.18Z" fill="white"/>
<path d="M214.016 64.0635V62.6294C214.016 56.5454 215.942 51.6348 219.795 47.8975C223.649 44.1602 228.777 42.2915 235.179 42.2915C241.611 42.2915 246.753 44.1602 250.606 47.8975C254.46 51.6348 256.386 56.5454 256.386 62.6294V64.0635C256.386 70.1764 254.46 75.1016 250.606 78.8389C246.753 82.5762 241.611 84.4448 235.179 84.4448C228.748 84.4448 223.605 82.5762 219.752 78.8389C215.928 75.1016 214.016 70.1764 214.016 64.0635ZM225.619 62.3252V64.3242C225.619 67.8008 226.43 70.64 228.052 72.8418C229.675 75.0146 232.05 76.1011 235.179 76.1011C238.308 76.1011 240.684 75.0146 242.306 72.8418C243.929 70.64 244.74 67.8008 244.74 64.3242V62.3252C244.74 58.8776 243.929 56.0819 242.306 53.938C240.684 51.7941 238.308 50.7222 235.179 50.7222C232.05 50.7222 229.675 51.7941 228.052 53.938C226.43 56.0819 225.619 58.8776 225.619 62.3252Z" fill="white"/>
<path d="M260.428 64.1069V62.7163C260.428 56.8641 261.949 52.0404 264.991 48.2451C268.062 44.4499 272.118 42.5522 277.159 42.5522C280.23 42.5522 282.823 43.0448 284.938 44.0298C287.052 45.0148 288.704 46.333 289.892 47.9844V19.998H301.147V83.4453H290.152L290.109 77.6655H290.022C288.863 79.4907 287.183 81.0552 284.981 82.3589C282.808 83.6626 280.201 84.3145 277.159 84.3145C271.973 84.3145 267.888 82.4023 264.904 78.5781C261.92 74.7539 260.428 69.9302 260.428 64.1069ZM272.031 63.9766C272.031 67.54 272.77 70.4661 274.247 72.7549C275.725 75.0436 278.028 76.188 281.157 76.188C283.243 76.188 285.024 75.5941 286.502 74.4062C287.979 73.1895 289.051 71.8133 289.718 70.2778V56.1978C289.08 54.6912 288.023 53.402 286.545 52.3301C285.068 51.2581 283.272 50.7222 281.157 50.7222C278.028 50.7222 275.725 51.8665 274.247 54.1553C272.77 56.415 272.031 59.3122 272.031 62.8467V63.9766Z" fill="white"/>
<path d="M307.361 64.02V62.6294C307.361 56.4585 309.215 51.5334 312.924 47.854C316.661 44.1457 321.644 42.2915 327.873 42.2915C334.015 42.2915 338.737 44.0443 342.04 47.5498C345.343 51.0553 346.994 55.908 346.994 62.1079V65.4106H313.445V59.1528H335.869V58.8486C335.869 56.5889 335.232 54.6333 333.957 52.9819C332.682 51.3306 330.625 50.5049 327.786 50.5049C324.831 50.5049 322.586 51.5623 321.05 53.6772C319.544 55.7922 318.791 58.4285 318.791 61.5864V64.1069C318.791 67.8732 319.602 70.8283 321.224 72.9722C322.875 75.116 325.237 76.188 328.308 76.188C330.509 76.188 332.349 75.7534 333.827 74.8843C335.333 73.9862 336.492 72.7983 337.303 71.3208L346.69 74.4932C345.444 77.4772 343.344 79.8818 340.389 81.707C337.463 83.5322 333.479 84.4448 328.438 84.4448C321.717 84.4448 316.516 82.6196 312.837 78.9692C309.187 75.2899 307.361 70.3068 307.361 64.02Z" fill="white"/>
<path d="M352.991 83.4453V43.4214H364.507V48.9839H364.551C365.71 47.1297 367.202 45.6087 369.027 44.4209C370.852 43.2331 372.981 42.6392 375.415 42.6392C376.168 42.6392 376.922 42.6971 377.675 42.813C378.428 42.8999 378.935 43.0013 379.196 43.1172V51.8521C378.674 51.6782 378.037 51.5479 377.284 51.4609C376.559 51.3451 375.763 51.2871 374.894 51.2871C372.924 51.2871 371.011 51.9245 369.157 53.1992C367.303 54.445 365.826 56.1108 364.725 58.1968V83.4453H352.991Z" fill="white"/>
<path d="M383.411 83.4453V43.4214H394.71V49.0273H394.797C395.927 46.9704 397.607 45.3625 399.838 44.2036C402.069 43.0158 404.749 42.4219 407.877 42.4219C411.904 42.4219 415.135 43.5518 417.568 45.8115C420.031 48.0713 421.262 51.7941 421.262 56.98V83.4453H409.79V58.8921C409.79 56.1108 409.196 54.1408 408.008 52.9819C406.82 51.7941 405.169 51.2002 403.054 51.2002C401.229 51.2002 399.606 51.7362 398.187 52.8081C396.767 53.88 395.666 55.2852 394.884 57.0234V83.4453H383.411Z" fill="white"/>
<path d="M145.176 123.738V97.4336H155.329C158.111 97.4336 160.297 98.1803 161.887 99.6738C163.477 101.155 164.272 103.173 164.272 105.726C164.272 108.316 163.453 110.387 161.815 111.941C160.177 113.495 157.997 114.271 155.275 114.271H151.156V123.738H145.176ZM151.156 110.152H154.462C155.859 110.152 156.841 109.767 157.407 108.996C157.985 108.225 158.274 107.208 158.274 105.943C158.274 104.678 157.985 103.667 157.407 102.908C156.841 102.149 155.859 101.77 154.462 101.77H151.156V110.152ZM158.852 123.738L153.378 111.959L159.105 110.983L165.446 123.738H158.852Z" fill="#BAC5C4"/>
<path d="M167.614 123.738V97.4336H184.922V102.095H173.432V108.147H183.314V112.465H173.432V119.186H185.157V123.738H167.614Z" fill="#BAC5C4"/>
<path d="M187.234 116.512V115.518H192.961V116.187C192.961 117.463 193.329 118.415 194.063 119.041C194.81 119.667 195.846 119.98 197.171 119.98C198.46 119.98 199.453 119.691 200.152 119.113C200.85 118.535 201.2 117.764 201.2 116.801C201.2 115.885 200.838 115.157 200.116 114.615C199.393 114.061 197.924 113.465 195.708 112.826C192.973 112.019 190.938 110.971 189.601 109.683C188.276 108.394 187.608 106.696 187.596 104.588C187.596 102.263 188.445 100.421 190.143 99.0596C191.853 97.6865 194.136 97 196.99 97C199.833 97 202.121 97.6624 203.855 98.9873C205.59 100.312 206.457 102.137 206.457 104.461V105.292H200.82V104.75C200.82 103.679 200.501 102.835 199.863 102.221C199.224 101.595 198.291 101.282 197.062 101.282C195.798 101.282 194.87 101.541 194.28 102.059C193.702 102.576 193.413 103.263 193.413 104.118C193.413 104.937 193.78 105.588 194.515 106.069C195.25 106.551 196.749 107.117 199.014 107.768C201.675 108.538 203.669 109.58 204.994 110.893C206.331 112.194 206.999 113.988 206.999 116.277C206.999 118.758 206.102 120.697 204.307 122.094C202.513 123.491 200.152 124.19 197.225 124.19C194.298 124.19 191.902 123.54 190.035 122.239C188.168 120.926 187.234 119.017 187.234 116.512Z" fill="#BAC5C4"/>
<path d="M208.246 102.095V97.4336H228.968V102.095H221.633V123.738H215.599V102.095H208.246Z" fill="#BAC5C4"/>
<path d="M156.178 15C157.06 15 157.788 15.3062 158.405 15.9187C159.022 16.5312 159.331 17.275 159.331 18.1281V28.9781H148.153C147.271 28.9781 146.543 28.6719 145.926 28.0594C145.309 27.4469 145 26.7031 145 25.85V20.6875H156.707V18.1281C156.707 17.975 156.663 17.8656 156.553 17.7563C156.443 17.6469 156.332 17.6031 156.178 17.6031H145V15H156.178ZM156.707 26.375V23.2906H147.624V25.85C147.624 26.0031 147.668 26.1125 147.778 26.2219C147.888 26.3312 147.998 26.375 148.153 26.375H156.707ZM181.996 15H184.796L179.504 28.9781H177.366L172.626 18.5875L168.15 28.9781L168.106 28.9562L168.128 28.9781H166.011L160.477 15H163.255L167.07 24.275L171.126 15H174.125L178.424 24.275L181.996 15ZM196.812 15C197.694 15 198.421 15.3062 199.038 15.9187C199.656 16.5312 199.964 17.275 199.964 18.1281V23.2906H188.257V25.85C188.257 26.0031 188.301 26.1125 188.412 26.2219C188.522 26.3312 188.632 26.375 188.786 26.375H199.964V28.9781H188.786C187.904 28.9781 187.177 28.6719 186.56 28.0594C185.942 27.4469 185.634 26.7031 185.634 25.85V18.1281C185.634 17.2531 185.942 16.5312 186.56 15.9187C187.177 15.3062 187.927 15 188.786 15H196.812ZM188.257 20.6875H197.341V18.1281C197.341 17.975 197.297 17.8656 197.186 17.7563C197.076 17.6469 196.966 17.6031 196.812 17.6031H188.786C188.632 17.6031 188.522 17.6469 188.412 17.7563C188.301 17.8656 188.257 17.975 188.257 18.1281V20.6875ZM216.699 18.15V18.675H214.075V18.15C214.075 17.9969 214.031 17.8875 213.921 17.7781C213.81 17.6687 213.7 17.625 213.546 17.625H205.52C205.366 17.625 205.256 17.6687 205.146 17.7781C205.035 17.8875 204.991 17.9969 204.991 18.15V20.1844C204.991 20.3375 205.035 20.4469 205.146 20.5562C205.256 20.6656 205.366 20.7094 205.52 20.7094H213.546C214.428 20.7094 215.155 21.0156 215.773 21.6281C216.39 22.2406 216.699 22.9844 216.699 23.8375V25.8719C216.699 26.7469 216.39 27.4687 215.773 28.0812C215.155 28.6937 214.406 29 213.546 29H205.52C204.639 29 203.911 28.6937 203.294 28.0812C202.676 27.4687 202.368 26.725 202.368 25.8719V25.3469H204.991V25.8719C204.991 26.025 205.035 26.1344 205.146 26.2437C205.256 26.3531 205.366 26.3969 205.52 26.3969H213.546C213.7 26.3969 213.81 26.3531 213.921 26.2437C214.031 26.1344 214.075 26.025 214.075 25.8719V23.8375C214.075 23.6844 214.031 23.575 213.921 23.4656C213.81 23.3562 213.7 23.3125 213.546 23.3125H205.52C204.639 23.3125 203.911 23.0062 203.294 22.3937C202.676 21.7812 202.368 21.0375 202.368 20.1844V18.15C202.368 17.275 202.676 16.5531 203.294 15.9406C203.911 15.3281 204.661 15.0219 205.52 15.0219H213.546C214.428 15.0219 215.155 15.3281 215.773 15.9406C216.39 16.5312 216.699 17.275 216.699 18.15ZM222.254 15H230.28C231.162 15 231.889 15.3062 232.507 15.9187C233.124 16.5312 233.433 17.275 233.433 18.1281V25.85C233.433 26.725 233.124 27.4469 232.507 28.0594C231.889 28.6719 231.14 28.9781 230.28 28.9781H222.254C221.373 28.9781 220.645 28.6719 220.028 28.0594C219.41 27.4469 219.102 26.7031 219.102 25.85V18.1281C219.102 17.2531 219.41 16.5312 220.028 15.9187C220.645 15.3062 221.395 15 222.254 15ZM230.28 17.6031H222.254C222.1 17.6031 221.99 17.6469 221.88 17.7563C221.769 17.8656 221.725 17.975 221.725 18.1281V25.85C221.725 26.0031 221.769 26.1125 221.88 26.2219C221.99 26.3312 222.1 26.375 222.254 26.375H230.28C230.434 26.375 230.544 26.3312 230.655 26.2219C230.765 26.1125 230.809 26.0031 230.809 25.85V18.1281C230.809 17.975 230.765 17.8656 230.655 17.7563C230.544 17.6688 230.434 17.6031 230.28 17.6031ZM253.981 15C254.863 15 255.59 15.3062 256.208 15.9187C256.825 16.5312 257.134 17.275 257.134 18.1281V28.9781H254.532V18.1281C254.532 17.975 254.488 17.8656 254.378 17.7563C254.267 17.6469 254.135 17.6031 253.981 17.6031H248.425C248.271 17.6031 248.16 17.6469 248.05 17.7563C247.94 17.8656 247.896 17.975 247.896 18.1281V28.9781H245.272V18.1281C245.272 17.975 245.228 17.8656 245.118 17.7563C245.008 17.6469 244.897 17.6031 244.743 17.6031H239.165C239.011 17.6031 238.9 17.6469 238.79 17.7563C238.68 17.8656 238.636 17.975 238.636 18.1281V28.9781H236.012V15H253.981ZM270.847 15C271.729 15 272.457 15.3062 273.074 15.9187C273.691 16.5312 274 17.275 274 18.1281V23.2906H262.293V25.85C262.293 26.0031 262.337 26.1125 262.447 26.2219C262.557 26.3312 262.668 26.375 262.822 26.375H274V28.9781H262.822C261.94 28.9781 261.212 28.6719 260.595 28.0594C259.978 27.4469 259.669 26.7031 259.669 25.85V18.1281C259.669 17.2531 259.978 16.5312 260.595 15.9187C261.212 15.3062 261.962 15 262.822 15H270.847ZM262.293 20.6875H271.376V18.1281C271.376 17.975 271.332 17.8656 271.222 17.7563C271.112 17.6469 271.002 17.6031 270.847 17.6031H262.822C262.668 17.6031 262.557 17.6469 262.447 17.7563C262.337 17.8656 262.293 17.975 262.293 18.1281V20.6875Z" fill="#BAC5C4"/>
</svg>
