<svg width="1200" height="382" viewBox="0 0 1200 382" fill="none" xmlns="http://www.w3.org/2000/svg">
<path d="M48.2744 278.925L87.9415 213.132L124.557 278.925L87.9415 344.717L48.2744 278.925Z" fill="#35544A"/>
<path d="M87.9415 344.717L48.2744 278.925H124.557L87.9415 344.717Z" fill="#09271D"/>
<path d="M235.454 278.929L142.073 122.343L110.508 174.977L168.378 278.929L131.551 344.722H195.997L235.454 278.929Z" fill="#35544A"/>
<path d="M235.451 278.927H168.375L131.548 344.72H195.994L235.451 278.927Z" fill="#09271D"/>
<path d="M345.842 278.929L252.461 122.343L220.896 174.977L278.765 278.929L241.939 344.722H306.385L345.842 278.929Z" fill="#35544A"/>
<path d="M345.842 278.929H278.765L241.939 344.722H306.385L345.842 278.929Z" fill="#09271D"/>
<path d="M395.944 234.215V125.006H426.522V141.133H426.759C430.631 135.283 435.53 130.698 441.456 127.378C447.382 123.979 454.295 122.279 462.197 122.279C470.098 122.279 476.814 123.939 482.345 127.259C487.955 130.58 491.826 135.481 493.96 141.963H494.078C498.108 135.718 503.481 130.896 510.197 127.497C516.913 124.018 524.459 122.279 532.834 122.279C543.422 122.279 551.916 125.323 558.316 131.41C564.716 137.496 567.916 147.654 567.916 161.884V234.215H536.39V166.271C536.39 158.761 534.888 153.544 531.886 150.619C528.883 147.694 524.617 146.232 519.086 146.232C514.187 146.232 509.92 147.733 506.286 150.737C502.73 153.741 499.846 157.575 497.634 162.239V234.215H466.108V166.271C466.108 158.761 464.567 153.544 461.485 150.619C458.483 147.694 454.177 146.232 448.567 146.232C443.747 146.232 439.559 147.773 436.004 150.856C432.448 153.86 429.525 157.694 427.233 162.358V234.215H395.944Z" fill="#09271D"/>
<path d="M583.679 181.33V177.417C583.679 160.816 588.933 147.417 599.442 137.22C609.95 127.022 623.936 121.924 641.398 121.924C658.938 121.924 672.963 127.022 683.472 137.22C693.981 147.417 699.235 160.816 699.235 177.417V181.33C699.235 198.01 693.981 211.448 683.472 221.646C672.963 231.843 658.938 236.942 641.398 236.942C623.857 236.942 609.832 231.843 599.323 221.646C588.894 211.448 583.679 198.01 583.679 181.33ZM615.323 176.587V182.041C615.323 191.527 617.536 199.274 621.96 205.282C626.385 211.211 632.864 214.175 641.398 214.175C649.931 214.175 656.41 211.211 660.835 205.282C665.259 199.274 667.472 191.527 667.472 182.041V176.587C667.472 167.18 665.259 159.552 660.835 153.702C656.41 147.852 649.931 144.927 641.398 144.927C632.864 144.927 626.385 147.852 621.96 153.702C617.536 159.552 615.323 167.18 615.323 176.587Z" fill="#09271D"/>
<path d="M710.257 181.448V177.654C710.257 161.686 714.405 148.524 722.702 138.168C731.077 127.813 742.139 122.635 755.887 122.635C764.262 122.635 771.334 123.979 777.102 126.667C782.87 129.354 787.374 132.951 790.613 137.457V61.0942H821.31V234.215H791.324L791.206 218.444H790.969C787.808 223.424 783.226 227.693 777.221 231.25C771.295 234.808 764.183 236.586 755.887 236.586C741.744 236.586 730.603 231.369 722.465 220.934C714.326 210.5 710.257 197.338 710.257 181.448ZM741.902 181.093C741.902 190.816 743.917 198.8 747.946 205.045C751.976 211.29 758.257 214.413 766.791 214.413C772.48 214.413 777.339 212.792 781.369 209.551C785.398 206.231 788.322 202.476 790.139 198.286V159.868C788.401 155.757 785.517 152.239 781.487 149.314C777.458 146.39 772.559 144.927 766.791 144.927C758.257 144.927 751.976 148.05 747.946 154.295C743.917 160.461 741.902 168.366 741.902 178.01V181.093Z" fill="#09271D"/>
<path d="M838.258 181.211V177.417C838.258 160.579 843.315 147.141 853.428 137.101C863.621 126.983 877.211 121.924 894.199 121.924C910.95 121.924 923.829 126.706 932.836 136.271C941.844 145.836 946.347 159.077 946.347 175.994V185.006H854.851V167.931H916.006V167.101C916.006 160.935 914.268 155.599 910.792 151.093C907.315 146.587 901.705 144.334 893.962 144.334C885.903 144.334 879.779 147.22 875.591 152.99C871.483 158.761 869.428 165.955 869.428 174.571V181.448C869.428 191.725 871.641 199.788 876.066 205.638C880.569 211.488 887.009 214.413 895.384 214.413C901.389 214.413 906.406 213.227 910.436 210.855C914.545 208.405 917.705 205.164 919.918 201.132L945.518 209.788C942.12 217.93 936.392 224.491 928.332 229.472C920.352 234.452 909.488 236.942 895.74 236.942C877.409 236.942 863.226 231.962 853.191 222.001C843.236 211.962 838.258 198.365 838.258 181.211Z" fill="#09271D"/>
<path d="M962.703 234.215V125.006H994.111V140.184H994.229C997.39 135.125 1001.46 130.975 1006.44 127.734C1011.41 124.493 1017.22 122.872 1023.86 122.872C1025.91 122.872 1027.97 123.03 1030.02 123.346C1032.08 123.584 1033.46 123.86 1034.17 124.176V148.01C1032.75 147.536 1031.01 147.18 1028.96 146.943C1026.98 146.627 1024.81 146.469 1022.44 146.469C1017.06 146.469 1011.85 148.208 1006.79 151.686C1001.74 155.085 997.706 159.631 994.703 165.322V234.215H962.703Z" fill="#09271D"/>
<path d="M1045.67 234.215V125.006H1076.48V140.303H1076.72C1079.8 134.69 1084.38 130.303 1090.47 127.141C1096.55 123.9 1103.86 122.279 1112.39 122.279C1123.38 122.279 1132.19 125.362 1138.82 131.528C1145.54 137.694 1148.9 147.852 1148.9 162.002V234.215H1117.61V167.219C1117.61 159.631 1115.99 154.255 1112.75 151.093C1109.51 147.852 1105.01 146.232 1099.24 146.232C1094.26 146.232 1089.83 147.694 1085.96 150.619C1082.09 153.544 1079.09 157.378 1076.96 162.121V234.215H1045.67Z" fill="#09271D"/>
<path d="M395.934 344.157V272.383H423.624C431.212 272.383 437.174 274.42 441.51 278.495C445.846 282.538 448.014 288.042 448.014 295.009C448.014 302.075 445.78 307.728 441.313 311.967C436.846 316.206 430.9 318.326 423.477 318.326H412.243V344.157H395.934ZM412.243 307.087H421.259C425.07 307.087 427.747 306.035 429.291 303.932C430.867 301.829 431.656 299.052 431.656 295.601C431.656 292.15 430.867 289.39 429.291 287.319C427.747 285.249 425.07 284.214 421.259 284.214H412.243V307.087ZM433.233 344.157L418.303 312.016L433.922 309.354L451.217 344.157H433.233Z" fill="#35544A"/>
<path d="M457.129 344.157V272.383H504.332V285.101H472.995V301.615H499.947V313.397H472.995V331.735H504.973V344.157H457.129Z" fill="#35544A"/>
<path d="M510.639 324.439V321.728H526.258V323.552C526.258 327.035 527.26 329.631 529.264 331.34C531.3 333.049 534.125 333.904 537.738 333.904C541.253 333.904 543.963 333.115 545.868 331.537C547.774 329.96 548.726 327.857 548.726 325.228C548.726 322.73 547.741 320.742 545.77 319.263C543.799 317.751 539.791 316.124 533.747 314.383C526.291 312.181 520.74 309.322 517.093 305.805C513.48 302.289 511.657 297.655 511.624 291.904C511.624 285.561 513.94 280.533 518.572 276.819C523.236 273.073 529.461 271.2 537.246 271.2C544.998 271.2 551.239 273.007 555.969 276.622C560.699 280.237 563.064 285.216 563.064 291.559V293.826H547.691V292.347C547.691 289.423 546.821 287.122 545.08 285.446C543.339 283.737 540.793 282.883 537.443 282.883C533.994 282.883 531.464 283.589 529.855 285.002C528.278 286.416 527.49 288.289 527.49 290.622C527.49 292.857 528.492 294.631 530.495 295.946C532.499 297.261 536.589 298.805 542.764 300.58C550.024 302.683 555.46 305.526 559.073 309.108C562.719 312.657 564.542 317.554 564.542 323.798C564.542 330.568 562.095 335.859 557.201 339.671C552.307 343.483 545.868 345.389 537.886 345.389C529.904 345.389 523.367 343.615 518.276 340.065C513.185 336.483 510.639 331.274 510.639 324.439Z" fill="#35544A"/>
<path d="M567.942 285.101V272.383H624.457V285.101H604.453V344.157H587.996V285.101H567.942Z" fill="#35544A"/>
<path d="M396 66.386C396 61.8814 397.698 58.4692 401.095 56.1495C404.519 53.8027 408.877 52.6159 414.17 52.5889H422.544V50.2017C422.544 48.3675 422.083 46.8974 421.161 45.7915C420.24 44.6586 418.646 44.0921 416.382 44.0921C414.117 44.0921 412.484 44.5642 411.484 45.5083C410.509 46.4254 410.022 47.5853 410.022 48.9879V49.6757H398.251V48.9474C398.251 45.1711 399.976 42.0826 403.426 39.6819C406.876 37.2543 411.392 36.0405 416.974 36.0405C422.636 36.0405 427.007 37.2003 430.088 39.5201C433.169 41.8398 434.709 45.4678 434.709 50.404V69.1778C434.709 70.8502 434.854 72.4551 435.144 73.9926C435.46 75.5032 435.881 76.7844 436.408 77.8364V78.4838H424.4C424.058 77.8634 423.768 77.0677 423.531 76.0966C423.294 75.0986 423.123 74.114 423.018 73.143C422.201 74.7074 420.661 76.1101 418.396 77.3509C416.132 78.5917 413.314 79.2121 409.943 79.2121C405.914 79.2121 402.583 78.1466 399.95 76.0157C397.317 73.8578 396 70.6479 396 66.386ZM408.166 65.334C408.166 67.1413 408.666 68.5709 409.667 69.6229C410.667 70.6749 412.234 71.2008 414.367 71.2008C416.658 71.2008 418.594 70.4456 420.174 68.935C421.754 67.3975 422.544 65.5903 422.544 63.5133V59.7505H416.5C413.656 59.7505 411.55 60.2225 410.18 61.1666C408.837 62.1107 408.166 63.4998 408.166 65.334Z" fill="#35544A"/>
<path d="M439.963 37.2138H452.01L457.896 59.8314C458.159 60.8834 458.37 61.8274 458.528 62.6636C458.712 63.4998 458.883 64.39 459.041 65.334H459.278C459.436 64.39 459.581 63.4998 459.713 62.6636C459.871 61.8274 460.094 60.8834 460.384 59.8314L466.902 37.2138H478.435L485.19 59.9123C485.506 60.9373 485.743 61.8679 485.901 62.7041C486.085 63.5403 486.269 64.4304 486.454 65.3745H486.651C486.809 64.4304 486.967 63.5403 487.125 62.7041C487.283 61.8409 487.481 60.9103 487.718 59.9123L493.603 37.2138H504.229L492.181 78.4838H480.41L473.34 55.6639C473.077 54.7468 472.84 53.8162 472.629 52.8721C472.418 51.928 472.221 50.9974 472.036 50.0803H471.878C471.72 50.9974 471.523 51.928 471.286 52.8721C471.075 53.8162 470.838 54.7468 470.575 55.6639L463.9 78.4838H452.05L439.963 37.2138Z" fill="#35544A"/>
<path d="M507.073 58.4557V57.161C507.073 50.7682 508.982 45.6431 512.8 41.7859C516.645 37.9286 521.595 36 527.652 36C533.735 36 538.475 37.8207 541.872 41.4622C545.295 45.1037 547.006 50.1208 547.006 56.5136V60.6406H514.854V53.3577H535.038V52.5889C535.038 50.404 534.393 48.5698 533.103 47.0862C531.839 45.6027 530.009 44.8609 527.612 44.8609C524.874 44.8609 522.78 45.8994 521.332 47.9764C519.91 50.0534 519.199 52.8182 519.199 56.2708V58.9412C519.199 62.5288 519.963 65.3745 521.49 67.4785C523.043 69.5554 525.321 70.5939 528.323 70.5939C530.404 70.5939 532.194 70.0814 533.695 69.0564C535.222 68.0314 536.434 66.8176 537.329 65.415L546.374 70.3107C545.084 73.062 542.899 75.3144 539.818 77.0677C536.737 78.794 532.958 79.6571 528.481 79.6571C521.793 79.6571 516.552 77.7285 512.76 73.8713C508.968 70.014 507.073 64.8755 507.073 58.4557Z" fill="#35544A"/>
<path d="M551.549 65.3745L563.162 65.4554V66.1433C563.162 68.0584 563.794 69.4475 565.058 70.3107C566.322 71.1739 568.033 71.6055 570.193 71.6055C572.326 71.6055 573.932 71.2143 575.012 70.4321C576.118 69.6229 576.671 68.5304 576.671 67.1548C576.671 65.7791 576.065 64.7541 574.854 64.0798C573.642 63.3784 570.93 62.5962 566.717 61.733C561.819 60.735 558.251 59.184 556.012 57.08C553.8 54.9761 552.694 52.2248 552.694 48.8261C552.694 44.807 554.274 41.6645 557.434 39.3987C560.594 37.1329 564.887 36 570.311 36C575.709 36 580.002 37.1868 583.188 39.5605C586.374 41.9073 587.967 45.1441 587.967 49.2711V49.8376H576.394V49.1497C576.394 47.5313 575.881 46.304 574.854 45.4678C573.827 44.6047 572.273 44.1731 570.193 44.1731C568.191 44.1731 566.73 44.5102 565.808 45.1846C564.913 45.8589 564.465 46.7895 564.465 47.9764C564.465 49.1632 565.071 50.1073 566.282 50.8086C567.494 51.483 570.245 52.2517 574.538 53.1149C579.462 54.1129 583.056 55.6235 585.321 57.6465C587.612 59.6426 588.757 62.4209 588.757 65.9814C588.757 70.3242 587.177 73.6824 584.017 76.0561C580.884 78.4298 576.315 79.6167 570.311 79.6167C564.334 79.6167 559.712 78.4298 556.447 76.0561C553.208 73.6824 551.575 70.2972 551.549 65.9005V65.3745Z" fill="#35544A"/>
<path d="M593.971 58.4557V57.161C593.971 50.7142 595.933 45.5757 599.857 41.7454C603.78 37.9151 608.915 36 615.262 36C621.608 36 626.73 37.9151 630.627 41.7454C634.55 45.5757 636.512 50.7142 636.512 57.161V58.4557C636.512 64.9025 634.55 70.041 630.627 73.8713C626.73 77.7015 621.608 79.6167 615.262 79.6167C608.915 79.6167 603.78 77.7015 599.857 73.8713C595.933 70.041 593.971 64.9025 593.971 58.4557ZM606.414 56.5541V59.0626C606.414 62.7041 607.177 65.5094 608.705 67.4785C610.232 69.4206 612.418 70.3916 615.262 70.3916C618.106 70.3916 620.278 69.4206 621.779 67.4785C623.306 65.5094 624.07 62.7041 624.07 59.0626V56.5541C624.07 52.9126 623.293 50.1208 621.739 48.1787C620.212 46.2366 618.053 45.2655 615.262 45.2655C612.444 45.2655 610.258 46.2366 608.705 48.1787C607.177 50.1208 606.414 52.9126 606.414 56.5541Z" fill="#35544A"/>
<path d="M643.741 78.4838V37.2138H655.393L655.591 42.231H655.788C657.026 40.3428 658.672 38.8862 660.725 37.8612C662.806 36.8362 665.07 36.3237 667.519 36.3237C670.337 36.3237 672.786 36.9441 674.866 38.1849C676.973 39.3987 678.487 41.179 679.409 43.5257H679.527C680.949 41.179 682.858 39.3987 685.255 38.1849C687.677 36.9441 690.258 36.3237 692.997 36.3237C697.025 36.3237 700.278 37.5915 702.753 40.127C705.228 42.6625 706.466 46.8839 706.466 52.7912V78.4838H694.261V52.8317C694.261 50.404 693.773 48.6372 692.799 47.5313C691.825 46.3984 690.39 45.8185 688.494 45.7915C686.808 45.7915 685.347 46.277 684.109 47.2481C682.898 48.2191 681.924 49.5409 681.186 51.2132V78.4838H668.981V52.9531C668.981 50.4715 668.481 48.6642 667.48 47.5313C666.506 46.3714 665.044 45.7915 663.095 45.7915C661.463 45.7915 660.041 46.277 658.83 47.2481C657.618 48.1922 656.657 49.5139 655.946 51.2132V78.4838H643.741Z" fill="#35544A"/>
<path d="M713.339 58.4557V57.161C713.339 50.7682 715.248 45.6431 719.066 41.7859C722.911 37.9286 727.861 36 733.918 36C740.001 36 744.741 37.8207 748.138 41.4622C751.561 45.1037 753.273 50.1208 753.273 56.5136V60.6406H721.12V53.3577H741.304V52.5889C741.304 50.404 740.659 48.5698 739.369 47.0862C738.105 45.6027 736.275 44.8609 733.879 44.8609C731.14 44.8609 729.046 45.8994 727.598 47.9764C726.176 50.0534 725.465 52.8182 725.465 56.2708V58.9412C725.465 62.5288 726.229 65.3745 727.756 67.4785C729.31 69.5554 731.588 70.5939 734.589 70.5939C736.67 70.5939 738.46 70.0814 739.961 69.0564C741.489 68.0314 742.7 66.8176 743.595 65.415L752.641 70.3107C751.35 73.062 749.165 75.3144 746.084 77.0677C743.003 78.794 739.224 79.6571 734.747 79.6571C728.059 79.6571 722.819 77.7285 719.027 73.8713C715.235 70.014 713.339 64.8755 713.339 58.4557Z" fill="#35544A"/>
</svg>
