<svg width="1200" height="382" viewBox="0 0 1200 382" fill="none" xmlns="http://www.w3.org/2000/svg">
<path d="M48.2744 275.925L87.9415 210.132L124.557 275.925L87.9415 341.717L48.2744 275.925Z" fill="#BAC5C4"/>
<path d="M87.9415 341.717L48.2744 275.925H124.557L87.9415 341.717Z" fill="white"/>
<path d="M235.454 275.929L142.073 119.343L110.508 171.977L168.378 275.929L131.551 341.722H195.997L235.454 275.929Z" fill="#BAC5C4"/>
<path d="M235.451 275.927H168.375L131.548 341.72H195.994L235.451 275.927Z" fill="white"/>
<path d="M345.842 275.929L252.461 119.343L220.896 171.977L278.765 275.929L241.939 341.722H306.385L345.842 275.929Z" fill="#BAC5C4"/>
<path d="M345.842 275.929H278.765L241.939 341.722H306.385L345.842 275.929Z" fill="white"/>
<path d="M395.944 231.215V122.006H426.522V138.133H426.759C430.631 132.283 435.53 127.698 441.456 124.378C447.382 120.979 454.295 119.279 462.197 119.279C470.098 119.279 476.814 120.939 482.345 124.259C487.955 127.58 491.826 132.481 493.96 138.963H494.078C498.108 132.718 503.481 127.896 510.197 124.497C516.913 121.018 524.459 119.279 532.834 119.279C543.422 119.279 551.916 122.323 558.316 128.41C564.716 134.496 567.916 144.654 567.916 158.884V231.215H536.39V163.271C536.39 155.761 534.888 150.544 531.886 147.619C528.883 144.694 524.617 143.232 519.086 143.232C514.187 143.232 509.92 144.733 506.286 147.737C502.73 150.741 499.846 154.575 497.634 159.239V231.215H466.108V163.271C466.108 155.761 464.567 150.544 461.485 147.619C458.483 144.694 454.177 143.232 448.567 143.232C443.747 143.232 439.559 144.773 436.004 147.856C432.448 150.86 429.525 154.694 427.233 159.358V231.215H395.944Z" fill="white"/>
<path d="M583.679 178.33V174.417C583.679 157.816 588.933 144.417 599.442 134.22C609.95 124.022 623.936 118.924 641.398 118.924C658.938 118.924 672.963 124.022 683.472 134.22C693.981 144.417 699.235 157.816 699.235 174.417V178.33C699.235 195.01 693.981 208.448 683.472 218.646C672.963 228.843 658.938 233.942 641.398 233.942C623.857 233.942 609.832 228.843 599.323 218.646C588.894 208.448 583.679 195.01 583.679 178.33ZM615.323 173.587V179.041C615.323 188.527 617.536 196.274 621.96 202.282C626.385 208.211 632.864 211.175 641.398 211.175C649.931 211.175 656.41 208.211 660.835 202.282C665.259 196.274 667.472 188.527 667.472 179.041V173.587C667.472 164.18 665.259 156.552 660.835 150.702C656.41 144.852 649.931 141.927 641.398 141.927C632.864 141.927 626.385 144.852 621.96 150.702C617.536 156.552 615.323 164.18 615.323 173.587Z" fill="white"/>
<path d="M710.257 178.448V174.654C710.257 158.686 714.405 145.524 722.702 135.168C731.077 124.813 742.139 119.635 755.887 119.635C764.262 119.635 771.334 120.979 777.102 123.667C782.87 126.354 787.374 129.951 790.613 134.457V58.0942H821.31V231.215H791.324L791.206 215.444H790.969C787.808 220.424 783.226 224.693 777.221 228.25C771.295 231.808 764.183 233.586 755.887 233.586C741.744 233.586 730.603 228.369 722.465 217.934C714.326 207.5 710.257 194.338 710.257 178.448ZM741.902 178.093C741.902 187.816 743.917 195.8 747.946 202.045C751.976 208.29 758.257 211.413 766.791 211.413C772.48 211.413 777.339 209.792 781.369 206.551C785.398 203.231 788.322 199.476 790.139 195.286V156.868C788.401 152.757 785.517 149.239 781.487 146.314C777.458 143.39 772.559 141.927 766.791 141.927C758.257 141.927 751.976 145.05 747.946 151.295C743.917 157.461 741.902 165.366 741.902 175.01V178.093Z" fill="white"/>
<path d="M838.258 178.211V174.417C838.258 157.579 843.315 144.141 853.428 134.101C863.621 123.983 877.211 118.924 894.199 118.924C910.95 118.924 923.829 123.706 932.836 133.271C941.844 142.836 946.347 156.077 946.347 172.994V182.006H854.851V164.931H916.006V164.101C916.006 157.935 914.268 152.599 910.792 148.093C907.315 143.587 901.705 141.334 893.962 141.334C885.903 141.334 879.779 144.22 875.591 149.99C871.483 155.761 869.428 162.955 869.428 171.571V178.448C869.428 188.725 871.641 196.788 876.066 202.638C880.569 208.488 887.009 211.413 895.384 211.413C901.389 211.413 906.406 210.227 910.436 207.855C914.545 205.405 917.705 202.164 919.918 198.132L945.518 206.788C942.12 214.93 936.392 221.491 928.332 226.472C920.352 231.452 909.488 233.942 895.74 233.942C877.409 233.942 863.226 228.962 853.191 219.001C843.236 208.962 838.258 195.365 838.258 178.211Z" fill="white"/>
<path d="M962.703 231.215V122.006H994.111V137.184H994.229C997.39 132.125 1001.46 127.975 1006.44 124.734C1011.41 121.493 1017.22 119.872 1023.86 119.872C1025.91 119.872 1027.97 120.03 1030.02 120.346C1032.08 120.584 1033.46 120.86 1034.17 121.176V145.01C1032.75 144.536 1031.01 144.18 1028.96 143.943C1026.98 143.627 1024.81 143.469 1022.44 143.469C1017.06 143.469 1011.85 145.208 1006.79 148.686C1001.74 152.085 997.706 156.631 994.703 162.322V231.215H962.703Z" fill="white"/>
<path d="M1045.67 231.215V122.006H1076.48V137.303H1076.72C1079.8 131.69 1084.38 127.303 1090.47 124.141C1096.55 120.9 1103.86 119.279 1112.39 119.279C1123.38 119.279 1132.19 122.362 1138.82 128.528C1145.54 134.694 1148.9 144.852 1148.9 159.002V231.215H1117.61V164.219C1117.61 156.631 1115.99 151.255 1112.75 148.093C1109.51 144.852 1105.01 143.232 1099.24 143.232C1094.26 143.232 1089.83 144.694 1085.96 147.619C1082.09 150.544 1079.09 154.378 1076.96 159.121V231.215H1045.67Z" fill="white"/>
<path d="M395.934 341.157V269.383H423.624C431.212 269.383 437.174 271.42 441.51 275.495C445.846 279.538 448.014 285.042 448.014 292.009C448.014 299.075 445.78 304.728 441.313 308.967C436.846 313.206 430.9 315.326 423.477 315.326H412.243V341.157H395.934ZM412.243 304.087H421.259C425.07 304.087 427.747 303.035 429.291 300.932C430.867 298.829 431.656 296.052 431.656 292.601C431.656 289.15 430.867 286.39 429.291 284.319C427.747 282.249 425.07 281.214 421.259 281.214H412.243V304.087ZM433.233 341.157L418.303 309.016L433.922 306.354L451.217 341.157H433.233Z" fill="#BAC5C4"/>
<path d="M457.129 341.157V269.383H504.332V282.101H472.995V298.615H499.947V310.397H472.995V328.735H504.973V341.157H457.129Z" fill="#BAC5C4"/>
<path d="M510.639 321.439V318.728H526.258V320.552C526.258 324.035 527.26 326.631 529.264 328.34C531.3 330.049 534.125 330.904 537.738 330.904C541.253 330.904 543.963 330.115 545.868 328.537C547.774 326.96 548.726 324.857 548.726 322.228C548.726 319.73 547.741 317.742 545.77 316.263C543.799 314.751 539.791 313.124 533.747 311.383C526.291 309.181 520.74 306.322 517.093 302.805C513.48 299.289 511.657 294.655 511.624 288.904C511.624 282.561 513.94 277.533 518.572 273.819C523.236 270.073 529.461 268.2 537.246 268.2C544.998 268.2 551.239 270.007 555.969 273.622C560.699 277.237 563.064 282.216 563.064 288.559V290.826H547.691V289.347C547.691 286.423 546.821 284.122 545.08 282.446C543.339 280.737 540.793 279.883 537.443 279.883C533.994 279.883 531.464 280.589 529.855 282.002C528.278 283.416 527.49 285.289 527.49 287.622C527.49 289.857 528.492 291.631 530.495 292.946C532.499 294.261 536.589 295.805 542.764 297.58C550.024 299.683 555.46 302.526 559.073 306.108C562.719 309.657 564.542 314.554 564.542 320.798C564.542 327.568 562.095 332.859 557.201 336.671C552.307 340.483 545.868 342.389 537.886 342.389C529.904 342.389 523.367 340.615 518.276 337.065C513.185 333.483 510.639 328.274 510.639 321.439Z" fill="#BAC5C4"/>
<path d="M567.942 282.101V269.383H624.457V282.101H604.453V341.157H587.996V282.101H567.942Z" fill="#BAC5C4"/>
<path d="M396 64.386C396 59.8814 397.698 56.4692 401.095 54.1495C404.519 51.8027 408.877 50.6159 414.17 50.5889H422.544V48.2017C422.544 46.3675 422.083 44.8974 421.161 43.7915C420.24 42.6586 418.646 42.0921 416.382 42.0921C414.117 42.0921 412.484 42.5642 411.484 43.5083C410.509 44.4254 410.022 45.5853 410.022 46.9879V47.6757H398.251V46.9474C398.251 43.1711 399.976 40.0826 403.426 37.6819C406.876 35.2543 411.392 34.0405 416.974 34.0405C422.636 34.0405 427.007 35.2003 430.088 37.5201C433.169 39.8398 434.709 43.4678 434.709 48.404V67.1778C434.709 68.8502 434.854 70.4551 435.144 71.9926C435.46 73.5032 435.881 74.7844 436.408 75.8364V76.4838H424.4C424.058 75.8634 423.768 75.0677 423.531 74.0966C423.294 73.0986 423.123 72.114 423.018 71.143C422.201 72.7074 420.661 74.1101 418.396 75.3509C416.132 76.5917 413.314 77.2121 409.943 77.2121C405.914 77.2121 402.583 76.1466 399.95 74.0157C397.317 71.8578 396 68.6479 396 64.386ZM408.166 63.334C408.166 65.1413 408.666 66.5709 409.667 67.6229C410.667 68.6749 412.234 69.2008 414.367 69.2008C416.658 69.2008 418.594 68.4456 420.174 66.935C421.754 65.3975 422.544 63.5903 422.544 61.5133V57.7505H416.5C413.656 57.7505 411.55 58.2225 410.18 59.1666C408.837 60.1107 408.166 61.4998 408.166 63.334Z" fill="#BAC5C4"/>
<path d="M439.963 35.2138H452.01L457.896 57.8314C458.159 58.8834 458.37 59.8274 458.528 60.6636C458.712 61.4998 458.883 62.39 459.041 63.334H459.278C459.436 62.39 459.581 61.4998 459.713 60.6636C459.871 59.8274 460.094 58.8834 460.384 57.8314L466.902 35.2138H478.435L485.19 57.9123C485.506 58.9373 485.743 59.8679 485.901 60.7041C486.085 61.5403 486.269 62.4304 486.454 63.3745H486.651C486.809 62.4304 486.967 61.5403 487.125 60.7041C487.283 59.8409 487.481 58.9103 487.718 57.9123L493.603 35.2138H504.229L492.181 76.4838H480.41L473.34 53.6639C473.077 52.7468 472.84 51.8162 472.629 50.8721C472.418 49.928 472.221 48.9974 472.036 48.0803H471.878C471.72 48.9974 471.523 49.928 471.286 50.8721C471.075 51.8162 470.838 52.7468 470.575 53.6639L463.9 76.4838H452.05L439.963 35.2138Z" fill="#BAC5C4"/>
<path d="M507.073 56.4557V55.161C507.073 48.7682 508.982 43.6431 512.8 39.7859C516.645 35.9286 521.595 34 527.652 34C533.735 34 538.475 35.8207 541.872 39.4622C545.295 43.1037 547.006 48.1208 547.006 54.5136V58.6406H514.854V51.3577H535.038V50.5889C535.038 48.404 534.393 46.5698 533.103 45.0862C531.839 43.6027 530.009 42.8609 527.612 42.8609C524.874 42.8609 522.78 43.8994 521.332 45.9764C519.91 48.0534 519.199 50.8182 519.199 54.2708V56.9412C519.199 60.5288 519.963 63.3745 521.49 65.4785C523.043 67.5554 525.321 68.5939 528.323 68.5939C530.404 68.5939 532.194 68.0814 533.695 67.0564C535.222 66.0314 536.434 64.8176 537.329 63.415L546.374 68.3107C545.084 71.062 542.899 73.3144 539.818 75.0677C536.737 76.794 532.958 77.6571 528.481 77.6571C521.793 77.6571 516.552 75.7285 512.76 71.8713C508.968 68.014 507.073 62.8755 507.073 56.4557Z" fill="#BAC5C4"/>
<path d="M551.549 63.3745L563.162 63.4554V64.1433C563.162 66.0584 563.794 67.4475 565.058 68.3107C566.322 69.1739 568.033 69.6055 570.193 69.6055C572.326 69.6055 573.932 69.2143 575.012 68.4321C576.118 67.6229 576.671 66.5304 576.671 65.1548C576.671 63.7791 576.065 62.7541 574.854 62.0798C573.642 61.3784 570.93 60.5962 566.717 59.733C561.819 58.735 558.251 57.184 556.012 55.08C553.8 52.9761 552.694 50.2248 552.694 46.8261C552.694 42.807 554.274 39.6645 557.434 37.3987C560.594 35.1329 564.887 34 570.311 34C575.709 34 580.002 35.1868 583.188 37.5605C586.374 39.9073 587.967 43.1441 587.967 47.2711V47.8376H576.394V47.1497C576.394 45.5313 575.881 44.304 574.854 43.4678C573.827 42.6047 572.273 42.1731 570.193 42.1731C568.191 42.1731 566.73 42.5102 565.808 43.1846C564.913 43.8589 564.465 44.7895 564.465 45.9764C564.465 47.1632 565.071 48.1073 566.282 48.8086C567.494 49.483 570.245 50.2517 574.538 51.1149C579.462 52.1129 583.056 53.6235 585.321 55.6465C587.612 57.6426 588.757 60.4209 588.757 63.9814C588.757 68.3242 587.177 71.6824 584.017 74.0561C580.884 76.4298 576.315 77.6167 570.311 77.6167C564.334 77.6167 559.712 76.4298 556.447 74.0561C553.208 71.6824 551.575 68.2972 551.549 63.9005V63.3745Z" fill="#BAC5C4"/>
<path d="M593.971 56.4557V55.161C593.971 48.7142 595.933 43.5757 599.857 39.7454C603.78 35.9151 608.915 34 615.262 34C621.608 34 626.73 35.9151 630.627 39.7454C634.55 43.5757 636.512 48.7142 636.512 55.161V56.4557C636.512 62.9025 634.55 68.041 630.627 71.8713C626.73 75.7015 621.608 77.6167 615.262 77.6167C608.915 77.6167 603.78 75.7015 599.857 71.8713C595.933 68.041 593.971 62.9025 593.971 56.4557ZM606.414 54.5541V57.0626C606.414 60.7041 607.177 63.5094 608.705 65.4785C610.232 67.4206 612.418 68.3916 615.262 68.3916C618.106 68.3916 620.278 67.4206 621.779 65.4785C623.306 63.5094 624.07 60.7041 624.07 57.0626V54.5541C624.07 50.9126 623.293 48.1208 621.739 46.1787C620.212 44.2366 618.053 43.2655 615.262 43.2655C612.444 43.2655 610.258 44.2366 608.705 46.1787C607.177 48.1208 606.414 50.9126 606.414 54.5541Z" fill="#BAC5C4"/>
<path d="M643.741 76.4838V35.2138H655.393L655.591 40.231H655.788C657.026 38.3428 658.672 36.8862 660.725 35.8612C662.806 34.8362 665.07 34.3237 667.519 34.3237C670.337 34.3237 672.786 34.9441 674.866 36.1849C676.973 37.3987 678.487 39.179 679.409 41.5257H679.527C680.949 39.179 682.858 37.3987 685.255 36.1849C687.677 34.9441 690.258 34.3237 692.997 34.3237C697.025 34.3237 700.278 35.5915 702.753 38.127C705.228 40.6625 706.466 44.8839 706.466 50.7912V76.4838H694.261V50.8317C694.261 48.404 693.773 46.6372 692.799 45.5313C691.825 44.3984 690.39 43.8185 688.494 43.7915C686.808 43.7915 685.347 44.277 684.109 45.2481C682.898 46.2191 681.924 47.5409 681.186 49.2132V76.4838H668.981V50.9531C668.981 48.4715 668.481 46.6642 667.48 45.5313C666.506 44.3714 665.044 43.7915 663.095 43.7915C661.463 43.7915 660.041 44.277 658.83 45.2481C657.618 46.1922 656.657 47.5139 655.946 49.2132V76.4838H643.741Z" fill="#BAC5C4"/>
<path d="M713.339 56.4557V55.161C713.339 48.7682 715.248 43.6431 719.066 39.7859C722.911 35.9286 727.861 34 733.918 34C740.001 34 744.741 35.8207 748.138 39.4622C751.561 43.1037 753.273 48.1208 753.273 54.5136V58.6406H721.12V51.3577H741.304V50.5889C741.304 48.404 740.659 46.5698 739.369 45.0862C738.105 43.6027 736.275 42.8609 733.879 42.8609C731.14 42.8609 729.046 43.8994 727.598 45.9764C726.176 48.0534 725.465 50.8182 725.465 54.2708V56.9412C725.465 60.5288 726.229 63.3745 727.756 65.4785C729.31 67.5554 731.588 68.5939 734.589 68.5939C736.67 68.5939 738.46 68.0814 739.961 67.0564C741.489 66.0314 742.7 64.8176 743.595 63.415L752.641 68.3107C751.35 71.062 749.165 73.3144 746.084 75.0677C743.003 76.794 739.224 77.6571 734.747 77.6571C728.059 77.6571 722.819 75.7285 719.027 71.8713C715.235 68.014 713.339 62.8755 713.339 56.4557Z" fill="#BAC5C4"/>
</svg>
